<svg xmlns="http://www.w3.org/2000/svg" version="1.1" xmlns:xlink="http://www.w3.org/1999/xlink" xmlns:svgjs="http://svgjs.com/svgjs" width="1440" height="560" preserveAspectRatio="none" viewBox="0 0 1440 560"><g mask="url(&quot;#SvgjsMask1198&quot;)" fill="none"><path d="M186.78 -113.02L359.99 -13.02L359.99 186.98L186.78 286.98L13.57 186.98L13.57 -13.02zM186.78 486.98L359.99 586.98L359.99 786.98L186.78 886.98L13.57 786.98L13.57 586.98zM533.2 486.98L706.41 586.98L706.41 786.98L533.2 886.98L359.99 786.98L359.99 586.98zM879.62 -113.02L1052.83 -13.02L1052.83 186.98L879.62 286.98L706.41 186.98L706.41 -13.02zM1052.83 186.98L1226.04 286.98L1226.04 486.98L1052.83 586.98L879.62 486.98L879.62 286.98zM879.62 486.98L1052.83 586.98L1052.83 786.98L879.62 886.98L706.41 786.98L706.41 586.98zM1399.25 186.98L1572.46 286.98L1572.46 486.98L1399.25 586.98L1226.04 486.98L1226.04 286.98zM1226.04 486.98L1399.25 586.98L1399.25 786.98L1226.04 886.98L1052.83 786.98L1052.83 586.98z" stroke="rgba(0, 0, 0, 0)" stroke-width="2"></path><path d="M166.78 -113.02 a20 20 0 1 0 40 0 a20 20 0 1 0 -40 0zM339.99 -13.02 a20 20 0 1 0 40 0 a20 20 0 1 0 -40 0zM339.99 186.98 a20 20 0 1 0 40 0 a20 20 0 1 0 -40 0zM166.78 286.98 a20 20 0 1 0 40 0 a20 20 0 1 0 -40 0zM-6.43 186.98 a20 20 0 1 0 40 0 a20 20 0 1 0 -40 0zM-6.43 -13.02 a20 20 0 1 0 40 0 a20 20 0 1 0 -40 0zM166.78 486.98 a20 20 0 1 0 40 0 a20 20 0 1 0 -40 0zM339.99 586.98 a20 20 0 1 0 40 0 a20 20 0 1 0 -40 0zM339.99 786.98 a20 20 0 1 0 40 0 a20 20 0 1 0 -40 0zM166.78 886.98 a20 20 0 1 0 40 0 a20 20 0 1 0 -40 0zM-6.43 786.98 a20 20 0 1 0 40 0 a20 20 0 1 0 -40 0zM-6.43 586.98 a20 20 0 1 0 40 0 a20 20 0 1 0 -40 0zM513.2 486.98 a20 20 0 1 0 40 0 a20 20 0 1 0 -40 0zM686.41 586.98 a20 20 0 1 0 40 0 a20 20 0 1 0 -40 0zM686.41 786.98 a20 20 0 1 0 40 0 a20 20 0 1 0 -40 0zM513.2 886.98 a20 20 0 1 0 40 0 a20 20 0 1 0 -40 0zM859.62 -113.02 a20 20 0 1 0 40 0 a20 20 0 1 0 -40 0zM1032.83 -13.02 a20 20 0 1 0 40 0 a20 20 0 1 0 -40 0zM1032.83 186.98 a20 20 0 1 0 40 0 a20 20 0 1 0 -40 0zM859.62 286.98 a20 20 0 1 0 40 0 a20 20 0 1 0 -40 0zM686.41 186.98 a20 20 0 1 0 40 0 a20 20 0 1 0 -40 0zM686.41 -13.02 a20 20 0 1 0 40 0 a20 20 0 1 0 -40 0zM1206.04 286.98 a20 20 0 1 0 40 0 a20 20 0 1 0 -40 0zM1206.04 486.98 a20 20 0 1 0 40 0 a20 20 0 1 0 -40 0zM1032.83 586.98 a20 20 0 1 0 40 0 a20 20 0 1 0 -40 0zM859.62 486.98 a20 20 0 1 0 40 0 a20 20 0 1 0 -40 0zM1032.83 786.98 a20 20 0 1 0 40 0 a20 20 0 1 0 -40 0zM859.62 886.98 a20 20 0 1 0 40 0 a20 20 0 1 0 -40 0zM1379.25 186.98 a20 20 0 1 0 40 0 a20 20 0 1 0 -40 0zM1552.46 286.98 a20 20 0 1 0 40 0 a20 20 0 1 0 -40 0zM1552.46 486.98 a20 20 0 1 0 40 0 a20 20 0 1 0 -40 0zM1379.25 586.98 a20 20 0 1 0 40 0 a20 20 0 1 0 -40 0zM1379.25 786.98 a20 20 0 1 0 40 0 a20 20 0 1 0 -40 0zM1206.04 886.98 a20 20 0 1 0 40 0 a20 20 0 1 0 -40 0z" fill="rgba(0, 0, 0, 0)"></path><path d="M22.3 243.05L95.05 285.05L95.05 369.05L22.3 411.05L-50.45 369.05L-50.45 285.05zM22.3 495.05L95.05 537.05L95.05 621.05L22.3 663.05L-50.45 621.05L-50.45 537.05zM167.8 495.05L240.54 537.05L240.54 621.05L167.8 663.05L95.05 621.05L95.05 537.05zM313.29 -8.95L386.04 33.05L386.04 117.05L313.29 159.05L240.54 117.05L240.54 33.05zM458.79 243.05L531.54 285.05L531.54 369.05L458.79 411.05L386.04 369.05L386.04 285.05zM531.54 369.05L604.29 411.05L604.29 495.05L531.54 537.05L458.79 495.05L458.79 411.05zM604.29 -8.95L677.03 33.05L677.03 117.05L604.29 159.05L531.54 117.05L531.54 33.05zM749.78 243.05L822.53 285.05L822.53 369.05L749.78 411.05L677.03 369.05L677.03 285.05zM895.28 -8.95L968.03 33.05L968.03 117.05L895.28 159.05L822.53 117.05L822.53 33.05zM1040.77 -8.95L1113.52 33.05L1113.52 117.05L1040.77 159.05L968.03 117.05L968.03 33.05zM1259.02 369.05L1331.77 411.05L1331.77 495.05L1259.02 537.05L1186.27 495.05L1186.27 411.05z" stroke="rgba(243, 194, 68, 1)" stroke-width="2"></path></g><defs><mask id="SvgjsMask1198"><rect width="1440" height="560" fill="#ffffff"></rect></mask></defs></svg>