<svg xmlns="http://www.w3.org/2000/svg" viewBox="0 0 500 500"><g id="freepik--background-complete--inject-30"><rect x="39.4" y="257.92" width="109.23" height="168.76" style="fill:#dbdbdb"></rect><rect x="39.4" y="268.06" width="109.43" height="17.95" style="fill:#ebebeb"></rect><rect x="39.4" y="290.69" width="109.43" height="3.66" style="fill:#ebebeb"></rect><rect x="39.4" y="299.02" width="109.43" height="3.66" style="fill:#ebebeb"></rect><rect x="39.4" y="306.45" width="109.43" height="17.95" style="fill:#ebebeb"></rect><rect x="39.4" y="329.07" width="109.43" height="3.66" style="fill:#ebebeb"></rect><rect x="39.4" y="337.4" width="109.43" height="3.66" style="fill:#ebebeb"></rect><rect x="39.4" y="344.83" width="109.43" height="17.95" style="fill:#ebebeb"></rect><rect x="39.4" y="367.46" width="109.43" height="3.66" style="fill:#ebebeb"></rect><rect x="39.4" y="375.79" width="109.43" height="3.66" style="fill:#ebebeb"></rect><rect x="39.4" y="383.22" width="109.43" height="17.95" style="fill:#ebebeb"></rect><rect x="39.4" y="405.84" width="109.43" height="3.66" style="fill:#ebebeb"></rect><rect x="39.4" y="414.17" width="109.43" height="3.66" style="fill:#ebebeb"></rect><path d="M40,259.28a30.92,30.92,0,0,1-.5-5.82,30,30,0,0,1,.5-5.81,29.24,29.24,0,0,1,.5,5.81A30.11,30.11,0,0,1,40,259.28Z" style="fill:#dbdbdb"></path><path d="M43.5,259.28a34.06,34.06,0,0,1,0-11.63,34.06,34.06,0,0,1,0,11.63Z" style="fill:#dbdbdb"></path><path d="M47,259.28a34.06,34.06,0,0,1,0-11.63,34.06,34.06,0,0,1,0,11.63Z" style="fill:#dbdbdb"></path><path d="M50.47,259.28a30.92,30.92,0,0,1-.5-5.82,30,30,0,0,1,.5-5.81,29.24,29.24,0,0,1,.5,5.81A30.92,30.92,0,0,1,50.47,259.28Z" style="fill:#dbdbdb"></path><path d="M54,259.28a34.06,34.06,0,0,1,0-11.63,34.06,34.06,0,0,1,0,11.63Z" style="fill:#dbdbdb"></path><path d="M57.44,259.28a34.06,34.06,0,0,1,0-11.63,34.06,34.06,0,0,1,0,11.63Z" style="fill:#dbdbdb"></path><path d="M60.92,259.28a30.92,30.92,0,0,1-.5-5.82,29.24,29.24,0,0,1,.5-5.81,29.24,29.24,0,0,1,.5,5.81A30.92,30.92,0,0,1,60.92,259.28Z" style="fill:#dbdbdb"></path><path d="M64.4,259.28a34.06,34.06,0,0,1,0-11.63,34.06,34.06,0,0,1,0,11.63Z" style="fill:#dbdbdb"></path><path d="M67.89,259.28a34.06,34.06,0,0,1,0-11.63,34.06,34.06,0,0,1,0,11.63Z" style="fill:#dbdbdb"></path><path d="M71.37,259.28a30.92,30.92,0,0,1-.5-5.82,29.24,29.24,0,0,1,.5-5.81,30,30,0,0,1,.5,5.81A30.92,30.92,0,0,1,71.37,259.28Z" style="fill:#dbdbdb"></path><path d="M74.85,259.28a34.06,34.06,0,0,1,0-11.63,34.06,34.06,0,0,1,0,11.63Z" style="fill:#dbdbdb"></path><path d="M78.34,259.28a34.06,34.06,0,0,1,0-11.63,34.06,34.06,0,0,1,0,11.63Z" style="fill:#dbdbdb"></path><path d="M81.82,259.28a30.11,30.11,0,0,1-.5-5.82,29.24,29.24,0,0,1,.5-5.81,30,30,0,0,1,.5,5.81A30.92,30.92,0,0,1,81.82,259.28Z" style="fill:#dbdbdb"></path><path d="M85.3,259.28a34.06,34.06,0,0,1,0-11.63,34.06,34.06,0,0,1,0,11.63Z" style="fill:#dbdbdb"></path><path d="M88.79,259.28a34.06,34.06,0,0,1,0-11.63,34.06,34.06,0,0,1,0,11.63Z" style="fill:#dbdbdb"></path><path d="M92.27,259.28a30.11,30.11,0,0,1-.5-5.82,29.24,29.24,0,0,1,.5-5.81,30,30,0,0,1,.5,5.81A30.92,30.92,0,0,1,92.27,259.28Z" style="fill:#dbdbdb"></path><path d="M95.75,259.28a34.06,34.06,0,0,1,0-11.63,29.24,29.24,0,0,1,.5,5.81A30.11,30.11,0,0,1,95.75,259.28Z" style="fill:#dbdbdb"></path><path d="M99.24,259.28a34.06,34.06,0,0,1,0-11.63,34.75,34.75,0,0,1,0,11.63Z" style="fill:#dbdbdb"></path><path d="M102.72,259.28a30.11,30.11,0,0,1-.5-5.82,29.24,29.24,0,0,1,.5-5.81,34.06,34.06,0,0,1,0,11.63Z" style="fill:#dbdbdb"></path><path d="M106.2,259.28a30.92,30.92,0,0,1-.5-5.82,30,30,0,0,1,.5-5.81,29.24,29.24,0,0,1,.5,5.81A30.11,30.11,0,0,1,106.2,259.28Z" style="fill:#dbdbdb"></path><path d="M109.68,259.28a34.06,34.06,0,0,1,0-11.63,34.06,34.06,0,0,1,0,11.63Z" style="fill:#dbdbdb"></path><path d="M113.17,259.28a34.06,34.06,0,0,1,0-11.63,34.06,34.06,0,0,1,0,11.63Z" style="fill:#dbdbdb"></path><path d="M116.65,259.28a30.92,30.92,0,0,1-.5-5.82,30,30,0,0,1,.5-5.81,29.24,29.24,0,0,1,.5,5.81A30.11,30.11,0,0,1,116.65,259.28Z" style="fill:#dbdbdb"></path><path d="M120.13,259.28a34.06,34.06,0,0,1,0-11.63,34.06,34.06,0,0,1,0,11.63Z" style="fill:#dbdbdb"></path><path d="M123.62,259.28a34.06,34.06,0,0,1,0-11.63,34.06,34.06,0,0,1,0,11.63Z" style="fill:#dbdbdb"></path><path d="M127.1,259.28a30.92,30.92,0,0,1-.5-5.82,30,30,0,0,1,.5-5.81,29.24,29.24,0,0,1,.5,5.81A30.92,30.92,0,0,1,127.1,259.28Z" style="fill:#dbdbdb"></path><path d="M130.58,259.28a34.06,34.06,0,0,1,0-11.63,34.06,34.06,0,0,1,0,11.63Z" style="fill:#dbdbdb"></path><path d="M134.07,259.28a34.06,34.06,0,0,1,0-11.63,34.06,34.06,0,0,1,0,11.63Z" style="fill:#dbdbdb"></path><path d="M137.55,259.28a30.92,30.92,0,0,1-.5-5.82,29.24,29.24,0,0,1,.5-5.81,29.24,29.24,0,0,1,.5,5.81A30.92,30.92,0,0,1,137.55,259.28Z" style="fill:#dbdbdb"></path><path d="M141,259.28a34.06,34.06,0,0,1,0-11.63,34.06,34.06,0,0,1,0,11.63Z" style="fill:#dbdbdb"></path><path d="M144.52,259.28a34.06,34.06,0,0,1,0-11.63,34.06,34.06,0,0,1,0,11.63Z" style="fill:#dbdbdb"></path><path d="M148,259.28a30.92,30.92,0,0,1-.5-5.82,29.24,29.24,0,0,1,.5-5.81,30,30,0,0,1,.5,5.81A30.92,30.92,0,0,1,148,259.28Z" style="fill:#dbdbdb"></path><path d="M40,437a30.75,30.75,0,0,1-.5-5.81,30.11,30.11,0,0,1,.5-5.82,29.34,29.34,0,0,1,.5,5.82A29.94,29.94,0,0,1,40,437Z" style="fill:#dbdbdb"></path><path d="M43.5,437a34.06,34.06,0,0,1,0-11.63,29.34,29.34,0,0,1,.5,5.82A29.18,29.18,0,0,1,43.5,437Z" style="fill:#dbdbdb"></path><path d="M47,437a34.06,34.06,0,0,1,0-11.63,30.92,30.92,0,0,1,.5,5.82A30.75,30.75,0,0,1,47,437Z" style="fill:#dbdbdb"></path><path d="M50.47,437a30.75,30.75,0,0,1-.5-5.81,30.11,30.11,0,0,1,.5-5.82,29.34,29.34,0,0,1,.5,5.82A30.75,30.75,0,0,1,50.47,437Z" style="fill:#dbdbdb"></path><path d="M54,437a34.06,34.06,0,0,1,0-11.63A34.06,34.06,0,0,1,54,437Z" style="fill:#dbdbdb"></path><path d="M57.44,437a34.06,34.06,0,0,1,0-11.63,34.06,34.06,0,0,1,0,11.63Z" style="fill:#dbdbdb"></path><path d="M60.92,437a30.75,30.75,0,0,1-.5-5.81,29.34,29.34,0,0,1,.5-5.82,29.34,29.34,0,0,1,.5,5.82A30.75,30.75,0,0,1,60.92,437Z" style="fill:#dbdbdb"></path><path d="M64.4,437a34.06,34.06,0,0,1,0-11.63,34.06,34.06,0,0,1,0,11.63Z" style="fill:#dbdbdb"></path><path d="M67.89,437a34.06,34.06,0,0,1,0-11.63,34.06,34.06,0,0,1,0,11.63Z" style="fill:#dbdbdb"></path><path d="M71.37,437a30.75,30.75,0,0,1-.5-5.81,29.34,29.34,0,0,1,.5-5.82,30.11,30.11,0,0,1,.5,5.82A30.75,30.75,0,0,1,71.37,437Z" style="fill:#dbdbdb"></path><path d="M74.85,437a34.06,34.06,0,0,1,0-11.63,34.06,34.06,0,0,1,0,11.63Z" style="fill:#dbdbdb"></path><path d="M78.34,437a34.06,34.06,0,0,1,0-11.63,34.06,34.06,0,0,1,0,11.63Z" style="fill:#dbdbdb"></path><path d="M81.82,437a29.94,29.94,0,0,1-.5-5.81,29.34,29.34,0,0,1,.5-5.82,30.11,30.11,0,0,1,.5,5.82A30.75,30.75,0,0,1,81.82,437Z" style="fill:#dbdbdb"></path><path d="M85.3,437a34.06,34.06,0,0,1,0-11.63,34.06,34.06,0,0,1,0,11.63Z" style="fill:#dbdbdb"></path><path d="M88.79,437a34.06,34.06,0,0,1,0-11.63,34.06,34.06,0,0,1,0,11.63Z" style="fill:#dbdbdb"></path><path d="M92.27,437a29.94,29.94,0,0,1-.5-5.81,29.34,29.34,0,0,1,.5-5.82,30.11,30.11,0,0,1,.5,5.82A30.75,30.75,0,0,1,92.27,437Z" style="fill:#dbdbdb"></path><path d="M95.75,437a34.06,34.06,0,0,1,0-11.63,29.34,29.34,0,0,1,.5,5.82A29.94,29.94,0,0,1,95.75,437Z" style="fill:#dbdbdb"></path><path d="M99.24,437a34.06,34.06,0,0,1,0-11.63,34.75,34.75,0,0,1,0,11.63Z" style="fill:#dbdbdb"></path><path d="M102.72,437a29.94,29.94,0,0,1-.5-5.81,29.34,29.34,0,0,1,.5-5.82,34.06,34.06,0,0,1,0,11.63Z" style="fill:#dbdbdb"></path><path d="M106.2,437a30.75,30.75,0,0,1-.5-5.81,30.11,30.11,0,0,1,.5-5.82,29.34,29.34,0,0,1,.5,5.82A29.94,29.94,0,0,1,106.2,437Z" style="fill:#dbdbdb"></path><path d="M109.68,437a34.06,34.06,0,0,1,0-11.63,34.06,34.06,0,0,1,0,11.63Z" style="fill:#dbdbdb"></path><path d="M113.17,437a34.06,34.06,0,0,1,0-11.63,34.06,34.06,0,0,1,0,11.63Z" style="fill:#dbdbdb"></path><path d="M116.65,437a30.75,30.75,0,0,1-.5-5.81,30.11,30.11,0,0,1,.5-5.82,29.34,29.34,0,0,1,.5,5.82A29.94,29.94,0,0,1,116.65,437Z" style="fill:#dbdbdb"></path><path d="M120.13,437a34.06,34.06,0,0,1,0-11.63,34.06,34.06,0,0,1,0,11.63Z" style="fill:#dbdbdb"></path><path d="M123.62,437a34.06,34.06,0,0,1,0-11.63,34.06,34.06,0,0,1,0,11.63Z" style="fill:#dbdbdb"></path><path d="M127.1,437a30.75,30.75,0,0,1-.5-5.81,30.11,30.11,0,0,1,.5-5.82,29.34,29.34,0,0,1,.5,5.82A30.75,30.75,0,0,1,127.1,437Z" style="fill:#dbdbdb"></path><path d="M130.58,437a34.06,34.06,0,0,1,0-11.63,34.06,34.06,0,0,1,0,11.63Z" style="fill:#dbdbdb"></path><path d="M134.07,437a34.06,34.06,0,0,1,0-11.63,34.06,34.06,0,0,1,0,11.63Z" style="fill:#dbdbdb"></path><path d="M137.55,437a30.75,30.75,0,0,1-.5-5.81,29.34,29.34,0,0,1,.5-5.82,29.34,29.34,0,0,1,.5,5.82A30.75,30.75,0,0,1,137.55,437Z" style="fill:#dbdbdb"></path><path d="M141,437a34.06,34.06,0,0,1,0-11.63A34.06,34.06,0,0,1,141,437Z" style="fill:#dbdbdb"></path><path d="M144.52,437a34.06,34.06,0,0,1,0-11.63,34.06,34.06,0,0,1,0,11.63Z" style="fill:#dbdbdb"></path><path d="M148,437a30.75,30.75,0,0,1-.5-5.81,29.34,29.34,0,0,1,.5-5.82,30.11,30.11,0,0,1,.5,5.82A30.75,30.75,0,0,1,148,437Z" style="fill:#dbdbdb"></path></g><g id="freepik--Wall--inject-30"><polygon points="24.26 31.34 80.69 31.1 137.13 31.01 250 30.84 362.87 31.01 419.31 31.09 475.74 31.34 419.31 31.58 362.87 31.67 250 31.84 137.13 31.67 80.69 31.58 24.26 31.34" style="fill:#263238"></polygon></g><g id="freepik--Shadow--inject-30"><ellipse cx="105.55" cy="190.96" rx="36.51" ry="30.55" style="fill:#ebebeb"></ellipse></g><g id="freepik--Slippers--inject-30"><path d="M116.56,192c4.73,2.28,7.39,5.74,7.16,10.47s-3.2,7.92-8.12,9.77-30.44,1.93-35.06-.06S71.73,205.61,72,200s4.87-9.76,9.66-11.3S111.84,189.72,116.56,192Z" style="fill:#1F032C"></path><path d="M96.72,187.27c1,6.37.3,21.57-1.32,27.81,0,0-26,2.15-25.2-15.13S96.72,187.27,96.72,187.27Z" style="fill:#1F032C"></path><path d="M96.72,187.27c1,6.37.3,21.57-1.32,27.81,0,0-26,2.15-25.2-15.13S96.72,187.27,96.72,187.27Z" style="opacity:0.2"></path><rect x="112.05" y="197.86" width="3.07" height="8.29" transform="translate(-93.57 305.9) rotate(-87.29)" style="fill:#fff"></rect><path d="M127.08,168.08c3.4,4,4.43,8.24,2.3,12.48s-6.14,5.95-11.38,5.64S89.38,175.65,86,172s-5.39-9.58-2.88-14.57,8.41-6.95,13.41-6.42S123.7,164.08,127.08,168.08Z" style="fill:#1F032C"></path><path d="M110.86,155.72c-1.65,6.24-8.47,19.84-12.48,24.9,0,0-24.67-8.57-16.91-24S110.86,155.72,110.86,155.72Z" style="fill:#1F032C"></path><path d="M110.86,155.72c-1.65,6.24-8.47,19.84-12.48,24.9,0,0-24.67-8.57-16.91-24S110.86,155.72,110.86,155.72Z" style="opacity:0.2"></path><polygon points="124.7 176.5 123.32 179.24 115.91 175.53 117.29 172.79 124.7 176.5" style="fill:#fff"></polygon></g><g id="freepik--Bed--inject-30"><rect x="163.55" y="45.59" width="279.69" height="411.94" style="fill:#c7c7c7"></rect><path d="M310.52,61.81s-3.74-5.19-2.2-7,6.83,1.44,6.83,1.44,31.7-7.66,49.76-7.66S416,55.2,416,55.2s7.27-3.74,8.15-2.64-3.08,5.95-3.08,5.95,9.91,35.68,1.32,58.36c0,0,3.52,4.85,1.54,5.95s-6.17-1.54-6.17-1.54-24.09,7.7-50.21,8.14-50.44-7.26-50.44-7.26-5.28,4.18-6.39,2.42,2-6.61,2-6.61S301.27,105,310.52,61.81Z" style="fill:#ebebeb"></path><rect x="161.61" y="31.34" width="283.57" height="14.26" style="fill:#263238"></rect><rect x="139.91" y="27.53" width="21.88" height="21.88" style="fill:#263238"></rect><rect x="445.18" y="27.53" width="21.88" height="21.88" style="fill:#263238"></rect><rect x="161.61" y="457.43" width="283.57" height="14.26" style="fill:#263238"></rect><rect x="139.91" y="453.62" width="21.88" height="21.88" style="fill:#263238"></rect><rect x="445.18" y="453.62" width="21.88" height="21.88" style="fill:#263238"></rect></g><g id="freepik--side-table--inject-30"><rect x="39.79" y="31.34" width="92.22" height="84.81" style="fill:#455a64"></rect><rect x="37.1" y="116.15" width="97.61" height="7.02" style="fill:#37474f"></rect></g><g id="freepik--Clock--inject-30"><rect x="69.37" y="50.97" width="52.51" height="12.26" style="fill:#ebebeb"></rect><rect x="72.34" y="52.89" width="42.75" height="8.42" style="fill:#263238"></rect><rect x="116.62" y="52.89" width="3.29" height="1.29" style="fill:#263238"></rect><rect x="116.62" y="55.32" width="3.29" height="1.29" style="fill:#1F032C"></rect><rect x="116.62" y="57.75" width="3.29" height="1.29" style="fill:#263238"></rect><path d="M76.37,54.62H81.9v.6l-2.77,1.23h.93a2.09,2.09,0,0,1,1.32.4,1.11,1.11,0,0,1,.52.82v1.21a1,1,0,0,1-.54.86,2.33,2.33,0,0,1-1.3.36H78.21c-1.08,0-1.69-.41-1.84-1.22h.93c0,.41.35.61.91.61h.92a1.16,1.16,0,0,0,.66-.18.51.51,0,0,0,.27-.43V57.67a.64.64,0,0,0-.23-.38.94.94,0,0,0-.7-.24H77.3v-.6l2.76-1.23H76.37Z" style="fill:#1F032C"></path><path d="M83.74,57.05V55.84h1.85v1.21Zm0,3.05V58.88h1.85V60.1Z" style="fill:#1F032C"></path><path d="M89.27,60.1V55.84h-.91v-.62l1.83-.6h.93V60.1Z" style="fill:#1F032C"></path><path d="M95.73,55.84H94.8c.15-.82.77-1.22,1.85-1.22H98.5a2.27,2.27,0,0,1,1.29.36,1,1,0,0,1,.54.86v.3c0,.42-.59,1-1.78,1.64l-.12.07c-1.19.67-1.78,1.2-1.78,1.59v.05h3.68v.61H94.8v-.61c0-.42.6-1,1.79-1.64l.13-.07c1.18-.67,1.78-1.22,1.78-1.64v-.3a.54.54,0,0,0-.28-.44,1.15,1.15,0,0,0-.65-.18h-.92C96.08,55.22,95.78,55.43,95.73,55.84Z" style="fill:#1F032C"></path><path d="M103,60.1V57.94a.52.52,0,0,1,.28-.44,1.15,1.15,0,0,1,.65-.18h.94a1.14,1.14,0,0,1,.66.19.51.51,0,0,1,.27.43V60.1h-.93V58.87H104V60.1Zm.93-1.54h.94v-.62a.26.26,0,0,0-.14-.22.65.65,0,0,0-.66,0,.26.26,0,0,0-.14.22Z" style="fill:#1F032C"></path><path d="M106.78,60.1V57.32H107l2,1.32,2-1.32h.47V60.1h-.94V58.4l-1.63,1.09-1.63-1.09v1.7Z" style="fill:#1F032C"></path><rect x="69.37" y="40.04" width="52.51" height="10.93" style="fill:#c7c7c7"></rect><rect x="72.34" y="42.37" width="28" height="0.5" style="fill:#a6a6a6"></rect><rect x="72.34" y="43.81" width="28" height="0.5" style="fill:#a6a6a6"></rect><rect x="72.34" y="45.25" width="28" height="0.5" style="fill:#a6a6a6"></rect><rect x="72.34" y="46.7" width="28" height="0.5" style="fill:#a6a6a6"></rect><rect x="72.34" y="48.14" width="28" height="0.5" style="fill:#a6a6a6"></rect></g><g id="freepik--Device--inject-30"><path d="M95.7,71.78,83.92,85.12a1.81,1.81,0,0,0,.18,2.56l27.45,24.26a1.83,1.83,0,0,0,2.57-.13L125.9,98.47a1.81,1.81,0,0,0-.18-2.56L98.27,71.65A1.83,1.83,0,0,0,95.7,71.78ZM124.13,96a1.69,1.69,0,0,1,.24,2.37L113.82,110.3a1.67,1.67,0,0,1-2.37,0L85.88,87.76c-1.47-1.3-1.06-1.91-.47-2.57l2.11-2.39a.42.42,0,0,1,.58.06l.08.07c.46.41.69.16,1-.15L94,77.25c.28-.31.49-.56,0-1L94,76.21a.42.42,0,0,1-.13-.56L96,73.26c.59-.67,1.27-1,2.62.15Z" style="fill:#1F032C"></path><line x1="109.83" y1="108.92" x2="109.79" y2="108.96" style="fill:none"></line><path d="M98.57,73.41,124.13,96a1.69,1.69,0,0,1,.24,2.37L113.82,110.3a1.67,1.67,0,0,1-2.37,0L85.88,87.76c-1.47-1.3-1.06-1.91-.47-2.57l2.11-2.39a.42.42,0,0,1,.58.06l.08.07c.46.41.69.16,1-.15L94,77.25c.28-.31.49-.56,0-1L94,76.21a.42.42,0,0,1-.13-.56L96,73.26C96.54,72.59,97.22,72.22,98.57,73.41Z" style="fill:#fff"></path><path d="M98.57,73.41,124.13,96a1.69,1.69,0,0,1,.24,2.37L113.82,110.3a1.67,1.67,0,0,1-2.37,0L85.88,87.76c-1.47-1.3-1.06-1.91-.47-2.57l2.11-2.39a.42.42,0,0,1,.58.06l.08.07c.46.41.69.16,1-.15L94,77.25c.28-.31.49-.56,0-1L94,76.21a.42.42,0,0,1-.13-.56L96,73.26C96.54,72.59,97.22,72.22,98.57,73.41Z" style="fill:#37474f"></path><path d="M91.67,78.76l-1.33,1.5a.12.12,0,0,1-.17,0h0a.11.11,0,0,1,0-.17l1.33-1.51a.12.12,0,0,1,.17,0h0A.13.13,0,0,1,91.67,78.76Z" style="fill:#fff"></path><g style="opacity:0.1"><polygon points="108.66 82.33 108.87 82.52 110.53 109.55 110.32 109.36 108.66 82.33" style="fill:#fff"></polygon><polygon points="99.25 74.01 99.46 74.2 101.13 101.23 100.91 101.05 99.25 74.01" style="fill:#fff"></polygon><polygon points="120.56 92.85 122 94.12 122.4 100.59 121.12 102.04 120.56 92.85" style="fill:#fff"></polygon><polygon points="100.75 75.34 102.19 76.61 103.86 103.65 102.42 102.38 100.75 75.34" style="fill:#fff"></polygon><path d="M87.06,83.33l.35,5.78-1.53-1.35c-1.47-1.3-1.06-1.91-.47-2.57Z" style="fill:#fff"></path><path d="M111,84.43,113.9,87l1.35,21.71-1.43,1.62a1.61,1.61,0,0,1-1.16.52Z" style="fill:#fff"></path><path d="M91.67,78.76l-.08.1,0-.31a.08.08,0,0,1,.09,0A.13.13,0,0,1,91.67,78.76Z" style="fill:#fff"></path><path d="M94,77.25a2.61,2.61,0,0,0,.17-.2l1.18,19.1-2.88-2.54-.84-13.68Z" style="fill:#fff"></path><path d="M94.09,75.37l.06,1a.76.76,0,0,0-.09-.09L94,76.21a.42.42,0,0,1-.13-.56Z" style="fill:#fff"></path></g></g><g id="freepik--Character--inject-30"><path d="M168.4,108.63c-1.3-3.77-2.38-19.24-1.86-23.59s2.9-16.79,6.27-16.74,3,3.75,3,3.75S177.62,67,181,67.33s2.57,6.09,2.57,6.09,2.27-5.09,5.63-4.48,1.56,6.22,1.56,6.22,1.86-4.75,4.42-3.08c3.08,2-1.34,10.37-1.54,15.22,0,1.1.64,22.4.64,22.4Z" style="fill:#ad6359"></path><path d="M190.93,74.68c-3.23,6.16-3.58,9.42-3,16.25,0,.13-.19.17-.21,0-1.15-6.64-1.3-10.79,2.95-16.46C190.85,74.23,191.08,74.38,190.93,74.68Z" style="fill:#263238"></path><path d="M183.85,72.93c-2.8,6.7-3.2,10.23-3.16,17.42,0,.1-.17.12-.18,0-.63-7-.69-11.19,3-17.51C183.66,72.56,184,72.63,183.85,72.93Z" style="fill:#263238"></path><path d="M175.8,72.42c-2.24,6.68-2.86,10.52-1.92,17.5a.13.13,0,1,1-.25,0c-1.65-7-.92-11.83,2-17.6C175.78,72,175.94,72,175.8,72.42Z" style="fill:#263238"></path><path d="M198,113.89s3-8.19,3.51-12.08-2.88-19.09-6.2-18.54c-4.3.71-4.07,9.87-3.37,14.34,0,0-9.93,1.63-11.19,8.24S198,113.89,198,113.89Z" style="fill:#ad6359"></path><path d="M194.23,83.85c-3.45,3.47-2.15,9.28-1.8,13.67a.4.4,0,0,1-.49.44c-4.12,1-9.65,3.51-11.3,7.66a.1.1,0,0,1-.2-.06c1.17-4.69,6.4-7.64,11-8.4-.43-4.49-1.48-10.38,2.78-13.34A0,0,0,0,1,194.23,83.85Z" style="fill:#263238"></path><path d="M197,107.38c-2.25-3.1-29.61-4.52-28.65,1,4.51,26.13,17.74,41.49,22,44.6,5.53,4.09,13.42.71,15.56-3.25C208.94,144,199.19,110.45,197,107.38Z" style="fill:#ad6359"></path><path d="M184.49,61.81s-3.74-5.19-2.2-7,6.83,1.44,6.83,1.44,31.71-7.66,49.77-7.66S290,55.2,290,55.2s7.27-3.74,8.15-2.64-3.08,5.95-3.08,5.95,9.91,35.68,1.32,58.36c0,0,3.52,4.85,1.54,5.95s-6.17-1.54-6.17-1.54-24.09,7.7-50.21,8.14-50.44-7.26-50.44-7.26-5.28,4.18-6.38,2.42,2-6.61,2-6.61S175.24,105,184.49,61.81Z" style="fill:#ebebeb"></path><path d="M240.62,53.3C227,55.43,209,79.48,211.28,92.35A36.23,36.23,0,0,0,249,122.48c18.12-1.06,27.54-28.27,25.77-39.63C272.26,67,251.9,51.53,240.62,53.3Z" style="fill:#dbdbdb"></path><path d="M237.33,104.5c-9.62,3.88-43.27,21.46-45.89,25-3.13,4.2-12.06,21.86,3.77,25.24,11,2.35,43.54-29.27,53.47-43.41C253.53,104.42,253.45,98,237.33,104.5Z" style="fill:#ad6359"></path><path d="M206.65,119.9c-8.38,2.89-17.56,11.21-17.58,11.22s-.07.32,0,.28c1.51-.84,11.81-8.5,17.64-11.25C206.77,120.12,206.7,119.88,206.65,119.9Z" style="fill:#263238"></path><path d="M216.06,144.23l-11.2-26.32s22.07-11.52,33.66-15.79,24.35-3.39,9,13.32A256.16,256.16,0,0,1,216.06,144.23Z" style="fill:#1F032C"></path><path d="M209.94,116.9c.65,1.25,1.19,2.59,1.74,3.9l1.72,4.14c1.13,2.71,2.23,5.42,3.33,8.14.63,1.56,1.19,3.15,1.87,4.68,0,.06-.07.09-.1,0-.59-1.34-1.28-2.64-1.9-4s-1.22-2.67-1.81-4c-1.18-2.69-4.57-11.23-5-12.83C209.77,116.89,209.89,116.81,209.94,116.9Z" style="fill:#263238"></path><path d="M254.36,105.28c-.64,2.41-2.73,5.73-6.79,10.16a257,257,0,0,1-31.5,28.8l-4.67-11Z" style="fill:#263238"></path><path d="M300.53,185,223,186.91c-.32-.31,7.2-71.64,11.89-80.67a15.19,15.19,0,0,1,20.47-7c4.25,2.44,8,5.88,13.3,12.71C286.93,135.35,300.68,184.79,300.53,185Z" style="fill:#1F032C"></path><path d="M163.72,457.53c-5.88-3.9-3.47-252.69-1.74-254.64s46.15-21.62,72-24.65,68.61-4.74,79.07-4.52,50.54-15.6,68.72-18.9,62-6.69,62.91-6.3,3.55,305.57,1.22,309S171.55,462.73,163.72,457.53Z" style="fill:#37474f"></path><path d="M159.83,203.05l.35-4.76a5,5,0,0,1,2.67-4.06c8.4-4.35,36.39-18,64.93-22.14,32.13-4.65,75.74-5.57,88-5.37,4.19.08,18.52-4.77,30-8.66,13.05-4.41,26.54-9,34.95-10.17,13.34-1.89,46.26-4.42,58.76-5.35a5,5,0,0,1,5.33,4.46l.42,4a5,5,0,0,1-4.59,5.49c-12.67.95-45.33,3.47-58,5.26-7.12,1-20.56,5.56-32.42,9.57-17.2,5.81-28.14,9.4-34.47,9.4h-.26c-11.47-.17-54.87.75-85.78,5.23-22.47,3.25-49.66,15.52-62.78,22A5,5,0,0,1,159.83,203.05Z" style="fill:#263238"></path><path d="M255.91,113c4.8,7.91,30.33,32.41,30.87,34.1s-26.43,24.14-31.27,29.57c-3.28,3.68,20.46,24.69,27.13,18.31,10.32-9.9,41-36,38.84-49s-49.66-38.45-58.74-42.76S248,100,255.91,113Z" style="fill:#ad6359"></path><path d="M233.48,209.69c1.89,2.88,5.32,1.91,5.32,1.91a7.32,7.32,0,0,0,1.81,4.65c2.09,2.18,6.43-.14,6.43-.14a9.09,9.09,0,0,0,2.69,4.6c2.22,1.89,6.93.16,6.93.16a7.93,7.93,0,0,0,4.91,2.56c5.08.43,9.74-5.81,12.75-9.74s7.84-17.9,9-20.47l-25.08-19.5s-18.49,13.81-21.36,18.93C234.49,197,231.37,206.46,233.48,209.69Z" style="fill:#ad6359"></path><path d="M238.53,211.11c1.48-5.21,4.41-9.7,7.08-14.34a.09.09,0,0,1,.16.09c-2.71,4.59-4.48,9.66-7,14.35A.13.13,0,0,1,238.53,211.11Z" style="fill:#263238"></path><path d="M246.78,215.77a14,14,0,0,1,1.78-3.23c.7-1.1,1.43-2.19,2.17-3.26q2.24-3.24,4.63-6.35c.07-.09.23,0,.16.09-1.48,2.15-2.93,4.32-4.32,6.53-.69,1.11-1.38,2.22-2,3.34a17.08,17.08,0,0,1-2.06,3.06A.19.19,0,0,1,246.78,215.77Z" style="fill:#263238"></path><path d="M256.72,220.78a9.67,9.67,0,0,1,1.76-2.82c.69-1,1.39-1.94,2.08-2.92,1.37-1.95,2.75-3.9,4.05-5.89.07-.1.23,0,.16.09-1.31,2-2.6,4.09-3.94,6.11q-1,1.5-2,3a9.12,9.12,0,0,1-2,2.53S256.7,220.83,256.72,220.78Z" style="fill:#263238"></path><path d="M303.77,125.65l-21.84,18.47s-17.53-17.69-25-27.49S246.47,94.36,267,104.05A256.94,256.94,0,0,1,303.77,125.65Z" style="fill:#1F032C"></path><path d="M262.72,125.6c.86.65,1.7,1.32,2.52,2l1.22,1-1.15-1.29c-1.46-1.68-2.89-3.4-4.27-5.15a.06.06,0,0,1,.09-.08c2.82,2.77,5.56,5.62,8.25,8.51s5.35,5.63,8,8.47c1.51,1.6,4.44,4.89,4.48,4.86s.86-.53.94-.6.11,0,.06.08-1.06.88-1.06.88a42.76,42.76,0,0,1-4.35-4.06c-1.39-1.39-2.76-2.81-4.12-4.24-2-2.14-4.1-4.29-6.09-6.49-.75-.56-1.47-1.19-2.19-1.77s-1.62-1.36-2.4-2.08C262.61,125.64,262.67,125.56,262.72,125.6Z" style="fill:#263238"></path><path d="M279.46,139.57c1-1,2.12-1.91,3.21-2.81l3.45-2.87c2.25-1.88,4.52-3.73,6.8-5.59,1.3-1.05,2.65-2.06,3.91-3.16.05,0,.11,0,.06.08-1.1,1-2.15,2-3.24,3s-2.19,2-3.3,2.92c-2.22,1.92-9.38,7.68-10.78,8.56C279.5,139.74,279.39,139.65,279.46,139.57Z" style="fill:#263238"></path><path d="M242.27,112.42c3,.92,9.25-3.48,11.81-8.45.17-.35-.43-3.88-1-8.2-.31-2.63-.6-5.56-.67-8.26,0-.55-1.87.52-1.87.52l-3.46.93-11.46,3.09a42.89,42.89,0,0,1,1.9,10.31,6.57,6.57,0,0,1-.09,1.11s0,.11,0,.18C237.15,105.76,238.46,111.23,242.27,112.42Z" style="fill:#ad6359"></path><path d="M237.46,103.47s0,.11,0,.18a10.88,10.88,0,0,0,1.74,0c11.37-.55,12.42-15,12.42-15l-4.49.31-11.46,3.09a42.89,42.89,0,0,1,1.9,10.31A6.57,6.57,0,0,1,237.46,103.47Z" style="fill:#263238"></path><path d="M254.85,68.57c1.62,6.06-2.13,23.25-6.53,27-6.37,5.38-16.5,5.57-21-2-4.37-7.35.93-29.68,5.81-33C240.32,55.57,252.45,59.63,254.85,68.57Z" style="fill:#ad6359"></path><path d="M241.18,77.35c2.51-.15,2.63,4.89.3,5S239.07,77.48,241.18,77.35Z" style="fill:#263238;opacity:0.4"></path><path d="M231.94,76.05c2.06.6.49,5.39-1.41,4.84S230.22,75.55,231.94,76.05Z" style="fill:#263238;opacity:0.4"></path><path d="M240,78.45s.09.07.08.12c-.23,1.18-.29,2.57.72,3.14,0,0,0,.08,0,.07C239.44,81.38,239.55,79.53,240,78.45Z" style="fill:#263238"></path><path d="M241.21,77.38c1.94.16,1.48,4-.32,3.87S239.59,77.24,241.21,77.38Z" style="fill:#263238"></path><path d="M232.87,77.47s-.1,0-.11.09c-.1,1.2-.43,2.56-1.56,2.83a0,0,0,0,0,0,.06C232.55,80.43,233,78.62,232.87,77.47Z" style="fill:#263238"></path><path d="M232,76.09c-1.91-.38-2.52,3.46-.75,3.81S233.55,76.41,232,76.09Z" style="fill:#263238"></path><path d="M243.41,74.69A15.91,15.91,0,0,1,242,74a2.52,2.52,0,0,1-1.34-1,.82.82,0,0,1,.22-1,2,2,0,0,1,2.07,0,2.93,2.93,0,0,1,1.59,1.45A.88.88,0,0,1,243.41,74.69Z" style="fill:#263238"></path><path d="M231,72.83a13.65,13.65,0,0,0,1.58-.21,2.67,2.67,0,0,0,1.58-.52.84.84,0,0,0,.07-1,2,2,0,0,0-2-.62,2.94,2.94,0,0,0-1.95.92A.87.87,0,0,0,231,72.83Z" style="fill:#263238"></path><path d="M238.27,87.82a10,10,0,0,0-4.66-.85c-.14,0-.23-.33-.24-.46h0s.4-2.51.4-2.51c-.35.12-2.14.67-2.05.19a60.15,60.15,0,0,1,3.11-12,.11.11,0,0,1,.21,0c-.56,3.78-1.78,7.44-2.4,11.22a6.94,6.94,0,0,1,2-.33c.12,0-.56,2.64-.57,3a5.92,5.92,0,0,1,4.31,1.09C238.82,87.69,239,88.19,238.27,87.82Z" style="fill:#263238"></path><path d="M240.46,89.89c-.32.24-.65.58-1.09.56a3.29,3.29,0,0,1-1.23-.46s-.08,0-.06.05a1.63,1.63,0,0,0,1.42.84,1.27,1.27,0,0,0,1.07-.92C240.6,89.89,240.51,89.85,240.46,89.89Z" style="fill:#263238"></path><path d="M254.49,79.73c-1.15-1-2.87-4.75-3.67-6.35s-.17-8.08.17-11a12.68,12.68,0,0,1,3.86,6.16C255.5,71,255.28,75.28,254.49,79.73Z" style="fill:#263238;opacity:0.4"></path><path d="M235.45,65.94a6,6,0,0,0,5.13,2.81,6.11,6.11,0,0,0,5.2-2.93,0,0,0,0,1,.08.05,6.06,6.06,0,0,1-5.26,3.37A6.18,6.18,0,0,1,235.33,66C235.28,65.94,235.4,65.86,235.45,65.94Z" style="fill:#263238"></path><path d="M243.75,52.18c3.43.58,6.31,3,7.23,5.48a6.76,6.76,0,0,1,0,4.44c0,.06-.14,0-.13,0A7.38,7.38,0,0,0,248.38,55a9.51,9.51,0,0,0-8.19-2.23,6.08,6.08,0,0,0-3.58,2.1c-.09.12-.33,0-.26-.12C237.6,52.69,240.65,51.66,243.75,52.18Z" style="fill:#263238"></path><path d="M222.66,56.71a7.69,7.69,0,0,1,3.84-3.6c2.3-1,4.66-.46,7,.13.07,0,0,.11,0,.1a10.51,10.51,0,0,0-6-.2,7.52,7.52,0,0,0-4,3.12,7.34,7.34,0,0,0,1.69,9.48,7.47,7.47,0,0,0,5.74,1.44c.08,0,.12.11,0,.13a7.6,7.6,0,0,1-8.64-5.1A7.69,7.69,0,0,1,222.66,56.71Z" style="fill:#263238"></path><path d="M255.44,71.05s4.14-5.69,1.92-9.65c-1.27-2.24-6.45-2.7-6.45-2.7a9.34,9.34,0,0,0-5.35-4.77c-4.17-1.6-9.64.19-9.64.19s-3.76-2.92-7.89-1.28c-5.77,2.3-6.26,10.52-1.26,13.9,3.51,2.37,9.11-.24,9.11-.24.48.13,5.1,3.89,9.55-.07,0,0,2.71,3.19,5.76,1.66A4.54,4.54,0,0,0,255.44,71.05Z" style="fill:#263238"></path><path d="M250.74,82.67s4.2-5.39,6.67-3.87-.9,9.48-3.93,10.44a3,3,0,0,1-4-1.84Z" style="fill:#ad6359"></path><path d="M256.39,81.06c.05,0,.05.06,0,.08-2.13.74-3.33,2.62-4.2,4.58a1.66,1.66,0,0,1,2.52-.32c.05,0,0,.12-.06.11a1.86,1.86,0,0,0-2.09.54,8.79,8.79,0,0,0-1.06,1.61c-.11.18-.44.06-.36-.15l0-.05C251.25,84.8,253.52,81.18,256.39,81.06Z" style="fill:#263238"></path><path d="M230.18,238l-10,19.45c-3.27,6.5-6.6,13-9.54,19.63-.76,1.65-1.46,3.32-2.15,5l-.9,2.54a17.72,17.72,0,0,0-.52,2.59c-.45,3.61-.76,7.24-1.15,10.86l-2.18,21.75c.36-7.28.85-14.55,1.42-21.82.27-3.64.6-7.26,1-10.9a18.24,18.24,0,0,1,.53-2.75l.9-2.62c.69-1.7,1.37-3.4,2.13-5.06,3-6.65,6.35-13.14,9.77-19.58q2.58-4.81,5.23-9.6C226.55,244.32,228.33,241.14,230.18,238Z" style="fill:#263238"></path><path d="M301.29,196.15A135.62,135.62,0,0,1,299.36,228a74.73,74.73,0,0,1-4.52,15.38c-.58,1.21-1.08,2.46-1.74,3.63s-1.35,2.34-2.05,3.48l-4.32,6.71L269.26,284l-8.8,13.32-8.89,13.27L260.05,297l8.57-13.47,17.28-26.87,4.36-6.69,2-3.39c.64-1.14,1.14-2.37,1.72-3.56a79.45,79.45,0,0,0,4.6-15.16,126.42,126.42,0,0,0,2.17-15.77C301.22,206.79,301.38,201.47,301.29,196.15Z" style="fill:#263238"></path><path d="M198.33,411.72a2.48,2.48,0,0,1-.61,1.18c-.28.35-.59.68-.9,1-.63.64-1.3,1.24-2,1.84-1.36,1.16-2.76,2.27-4.17,3.37-2.81,2.2-5.71,4.27-8.59,6.37-1.44,1-2.88,2.09-4.3,3.15a30.87,30.87,0,0,0-4,3.36,4.41,4.41,0,0,0-.93,2.25,4.64,4.64,0,0,0,.47,2.44,7.09,7.09,0,0,0,3.78,3.46,7,7,0,0,1-4.22-3.24,5.16,5.16,0,0,1-.66-2.71,5.08,5.08,0,0,1,1-2.67,13.29,13.29,0,0,1,2-1.94c.68-.59,1.38-1.15,2.08-1.7,1.42-1.1,2.86-2.15,4.29-3.21q4.35-3.12,8.73-6.17c1.45-1,2.9-2.06,4.31-3.14.71-.53,1.41-1.07,2.09-1.65.33-.29.66-.59,1-.91A2.54,2.54,0,0,0,198.33,411.72Z" style="fill:#263238"></path><path d="M249,343.71c0,7.42-.21,14.84-.4,22.26s-.5,14.83-.76,22.24-.68,14.83-1.14,22.24c-.23,3.7-.48,7.41-.76,11.11-.16,1.85-.32,3.7-.51,5.54a36.65,36.65,0,0,1-.83,5.51,16.06,16.06,0,0,0,.37-2.76c.07-.92.14-1.84.2-2.77.11-1.85.2-3.7.28-5.55l.49-11.12.9-22.24,1-22.23.55-11.12Z" style="fill:#263238"></path><path d="M270.66,342.31l4.67,8.25,4.6,8.29c3.05,5.54,6,11.13,9,16.71s5.8,11.24,8.56,16.93c1.38,2.85,2.73,5.71,4,8.59q1,2.18,1.85,4.38a18.48,18.48,0,0,1,1.36,4.53l-.09-.58c-.05-.19-.12-.38-.18-.57a11.22,11.22,0,0,0-.41-1.1c-.28-.74-.61-1.46-.93-2.18-.65-1.43-1.33-2.86-2-4.27-1.38-2.84-2.81-5.65-4.27-8.46C293.88,387.22,291,381.6,288,376l-8.76-16.81C276.36,353.59,273.42,348,270.66,342.31Z" style="fill:#263238"></path><path d="M220.56,209.1c-.16,4.78-.59,9.54-1.12,14.29s-1.26,9.48-2.11,14.19q-.66,3.53-1.47,7l-.82,3.5c-.31,1.16-.63,2.31-1,3.46A78.84,78.84,0,0,1,209,265l1.26-3.35c.43-1.11.74-2.27,1.12-3.4s.71-2.27,1-3.41.67-2.29.93-3.45c1.2-4.61,2.16-9.28,3-14s1.62-9.39,2.33-14.11c.36-2.35.68-4.72,1-7.08S220.27,211.48,220.56,209.1Z" style="fill:#263238"></path><path d="M271.55,294.05c-3.12,4.06-6.31,8.06-9.5,12.07l-9.6,12c-3.24,4-6.43,8-9.63,12q-2.41,3-4.74,6c-1.57,2-3.14,4-4.51,6.21a114.21,114.21,0,0,1,8.65-12.71c3.07-4.11,6.27-8.11,9.45-12.12s6.48-7.94,9.79-11.84S268.11,297.84,271.55,294.05Z" style="fill:#263238"></path><path d="M189,414.43l5.33-6.35c1.75-2.13,3.52-4.24,5.21-6.41s3.38-4.35,5-6.59c.79-1.12,1.6-2.24,2.32-3.41s1.46-2.33,2.19-3.51a46.86,46.86,0,0,1-3.87,7.35,80.94,80.94,0,0,1-4.84,6.78c-1.73,2.17-3.53,4.27-5.42,6.3S191.05,412.59,189,414.43Z" style="fill:#263238"></path></g><g id="freepik--Sheeps--inject-30"><path d="M223,173.43s-.76,4.78-1,5.8,0,5.07-.22,5.26a1.26,1.26,0,0,1-1.08.14c-.19-.14-.4-4.92-.44-5.32s-.77-5.88-.77-5.88Z" style="fill:#a6a6a6"></path><path d="M218.76,174.84s-.75,4.78-1,5.8,0,5.07-.23,5.26a1.3,1.3,0,0,1-1.08.15c-.19-.15-.39-4.93-.43-5.32s-.77-5.89-.77-5.89Z" style="fill:#c7c7c7"></path><path d="M208.73,173.82s-.75,4.78-1,5.8,0,5.07-.23,5.26a1.29,1.29,0,0,1-1.08.14c-.19-.14-.4-4.92-.44-5.32s-.77-5.88-.77-5.88Z" style="fill:#a6a6a6"></path><path d="M204.54,174.84s-.75,4.78-1,5.8,0,5.07-.23,5.26a1.3,1.3,0,0,1-1.08.15c-.19-.15-.4-4.93-.44-5.32s-.77-5.89-.77-5.89Z" style="fill:#c7c7c7"></path><path d="M226.07,169.68a3,3,0,0,1-.59.09,3.38,3.38,0,0,1-1.65,2.65,3.41,3.41,0,0,1-5.28,3.29,4.13,4.13,0,0,1-6.77,2.79,3.07,3.07,0,0,1-1.74,1.21,3,3,0,0,1-3-.82,3.23,3.23,0,0,1-5.5-.76h-.25a2.56,2.56,0,0,1-2.48-1.95,2.59,2.59,0,0,1-1.69-1.77,2.53,2.53,0,0,1,.52-2.29,3.11,3.11,0,0,1-2.3-2.23,3.06,3.06,0,0,1,.52-2.65,3.19,3.19,0,0,1-.39-.88,3.11,3.11,0,0,1,2.21-3.8,3.9,3.9,0,0,1,.67-.11,2.54,2.54,0,0,1,1.88-2.32,2.45,2.45,0,0,1,1.14,0,4.13,4.13,0,0,1,6.89-3.45,3.41,3.41,0,0,1,6.22-.71,2.42,2.42,0,0,1,.84-.4,2.53,2.53,0,0,1,2.71,1,4.27,4.27,0,0,1,1.61-.84,4.14,4.14,0,0,1,5.06,2.94,4.07,4.07,0,0,1-.32,2.92,3.11,3.11,0,0,1,1.91,2.12l0,.12a3.11,3.11,0,0,1-.27,5.92Z" style="fill:#fff"></path><path d="M204.37,160.76a1.09,1.09,0,0,1,.88-.45,2,2,0,0,1,1.4-2.59,2.13,2.13,0,0,1,2.62,2.15c0,.28-.11.37-.1.09a2.07,2.07,0,0,0-2.1-1.86,1.85,1.85,0,0,0-1.32,2.64c0,.17-.46-.26-1.08.38a1.22,1.22,0,0,0-.06,1.39c.17.23,0,.2-.15,0A1.46,1.46,0,0,1,204.37,160.76Z" style="fill:#dbdbdb"></path><path d="M203.14,170.87a1.67,1.67,0,0,1,2.54.63c.12.26,0,.22-.15,0a1.46,1.46,0,0,0-2.12-.25,1.5,1.5,0,0,0-.17,2.2c.18.22.15.24-.07.06A1.67,1.67,0,0,1,203.14,170.87Z" style="fill:#dbdbdb"></path><path d="M197.72,170.22a1.35,1.35,0,0,1,.29-.44c-1.51-1.3-.73-3.51,1.32-3.13.28,0,.4.17.12.12a1.47,1.47,0,0,0-1.69,1,1.64,1.64,0,0,0,.6,1.76h0a1.61,1.61,0,0,1,1.12-.15c.28.07.31.13,0,.1a1.52,1.52,0,0,0-1.11,2.59c.21.2.17.21-.08,0A1.54,1.54,0,0,1,197.72,170.22Z" style="fill:#dbdbdb"></path><path d="M216.4,160.81a1.22,1.22,0,0,1,1.45-.62h0a1.37,1.37,0,0,1,1.6-1.31c1,.2,1.23,1.22,1,2.1-.07.28-.18.22-.11-.06a1.36,1.36,0,0,0-.91-1.58,1.08,1.08,0,0,0-1.33.94,1.34,1.34,0,0,1,.64,1.06c0,.28-.06.34-.1,0a1.3,1.3,0,0,0-2.23-.45C216.25,161.17,216.27,161.06,216.4,160.81Z" style="fill:#dbdbdb"></path><path d="M208.73,177.15a1.39,1.39,0,0,1,.79-1.3,1.9,1.9,0,0,1,.83-1.82,1.41,1.41,0,0,1,1.8.27c.19.21.2.32,0,.14a1.38,1.38,0,0,0-1.75.13,1.48,1.48,0,0,0-.43,1.18,1.34,1.34,0,0,1,1.42,1.4c0,.28-.05.3-.09,0a1.26,1.26,0,0,0-2.46,0C208.77,177.45,208.74,177.44,208.73,177.15Z" style="fill:#dbdbdb"></path><path d="M208.92,164.8a1.37,1.37,0,0,1,1.53,1.43c0,.29-.09.35-.11.07a1.24,1.24,0,0,0-1.29-1.07,1.28,1.28,0,0,0-1.14,1.29c0,.28-.08.17-.12-.11A1.37,1.37,0,0,1,208.92,164.8Z" style="fill:#dbdbdb"></path><path d="M218,171.12a1.23,1.23,0,0,1,.21,1.88c-.17.19-.26.19-.11,0a1.1,1.1,0,0,0-.27-1.49,1.15,1.15,0,0,0-1.53.21c-.16.2-.16.08,0-.14A1.22,1.22,0,0,1,218,171.12Z" style="fill:#dbdbdb"></path><path d="M226.13,162.17c.29-.65,2.42-.44,3.25.23s3.09,3.56,2.55,3.83-4.66-.22-5.48-1.15A3,3,0,0,1,226.13,162.17Z" style="fill:#a6a6a6"></path><path d="M228.48,164.77c1.16,2.38,2.48,11.43-2,12.26-5.14.94-9.8-6.35-10.17-9.79-.28-2.58,2.7-5.34,5.83-5.82S227.84,163.45,228.48,164.77Z" style="fill:#c7c7c7"></path><path d="M224.25,171.29l1.33.43h0l1.14-.64c.11-.07.14,0,0,0a4.9,4.9,0,0,1-1.09.76,7,7,0,0,1,0,1.66c0,.12-.09.07-.09-.06a9.41,9.41,0,0,0-.07-1.6,5.83,5.83,0,0,1-1.38-.58C224,171.25,224.13,171.26,224.25,171.29Z" style="fill:#263238"></path><path d="M221.44,169.55c-.91.11-.62,1.91.22,1.81S222.19,169.46,221.44,169.55Z" style="fill:#263238"></path><path d="M227.07,168.76c.88-.21,1.24,1.58.42,1.77S226.33,168.94,227.07,168.76Z" style="fill:#263238"></path><path d="M218.39,163.65c-.43-.57-2.46.1-3.13.93s-2.24,4.15-1.65,4.3,4.49-1.23,5.1-2.31A3,3,0,0,0,218.39,163.65Z" style="fill:#a6a6a6"></path><path d="M216.82,163.74a1.57,1.57,0,0,0,1.72,1.37l.25-.05a2.18,2.18,0,0,0,2.22,1.25,2.11,2.11,0,0,0,1.6-1,2.18,2.18,0,0,0,3.66-1.41,1.64,1.64,0,0,0,.55,0,1.56,1.56,0,0,0,1.36-1.72,1.53,1.53,0,0,0-1.7-1.37l-.14,0a2,2,0,0,0,0-.25,2.77,2.77,0,0,0-5.48-.24,1.55,1.55,0,0,0-2.53,1.36,1.15,1.15,0,0,0,.06.28,1,1,0,0,0-.17,0A1.57,1.57,0,0,0,216.82,163.74Z" style="fill:#fff"></path><path d="M267.14,241.56s-.75,4.78-1,5.79,0,5.07-.23,5.26a1.3,1.3,0,0,1-1.08.15c-.18-.15-.39-4.93-.43-5.32s-.77-5.88-.77-5.88Z" style="fill:#a6a6a6"></path><path d="M263,243s-.75,4.78-1,5.8,0,5.07-.23,5.26a1.29,1.29,0,0,1-1.08.14c-.19-.14-.39-4.92-.44-5.32s-.77-5.88-.77-5.88Z" style="fill:#c7c7c7"></path><path d="M252.92,241.94s-.75,4.78-1,5.8,0,5.07-.23,5.26a1.3,1.3,0,0,1-1.08.15c-.19-.15-.4-4.93-.44-5.32s-.77-5.89-.77-5.89Z" style="fill:#a6a6a6"></path><path d="M248.73,243s-.76,4.78-1,5.8,0,5.07-.23,5.26a1.29,1.29,0,0,1-1.08.14c-.18-.14-.39-4.92-.43-5.32s-.77-5.88-.77-5.88Z" style="fill:#c7c7c7"></path><path d="M270.26,237.81a3,3,0,0,1-.59.09,3.38,3.38,0,0,1-1.65,2.65,3.41,3.41,0,0,1-5.28,3.29,4.13,4.13,0,0,1-6.77,2.79,3.07,3.07,0,0,1-1.74,1.21,3,3,0,0,1-3-.82,3.23,3.23,0,0,1-5.5-.76h-.25a2.56,2.56,0,0,1-2.48-2,2.59,2.59,0,0,1-1.69-1.77,2.53,2.53,0,0,1,.52-2.29,3.11,3.11,0,0,1-2.3-2.23,3.06,3.06,0,0,1,.52-2.65,3.19,3.19,0,0,1-.39-.88,3.11,3.11,0,0,1,2.21-3.8,3.9,3.9,0,0,1,.67-.11,2.54,2.54,0,0,1,1.88-2.32,2.45,2.45,0,0,1,1.14,0,4.13,4.13,0,0,1,6.89-3.45,3.41,3.41,0,0,1,6.22-.71,2.42,2.42,0,0,1,.84-.4,2.53,2.53,0,0,1,2.71,1,4.27,4.27,0,0,1,1.61-.84,4.14,4.14,0,0,1,5.06,2.94,4.07,4.07,0,0,1-.32,2.92,3.11,3.11,0,0,1,1.91,2.12l0,.12a3.11,3.11,0,0,1-.27,5.92Z" style="fill:#fff"></path><path d="M248.55,228.89a1.05,1.05,0,0,1,.89-.45,2,2,0,0,1,1.4-2.6,2.13,2.13,0,0,1,2.62,2.15c0,.29-.11.38-.11.09a2.07,2.07,0,0,0-2.09-1.86,1.86,1.86,0,0,0-1.32,2.64c0,.17-.46-.26-1.09.38a1.24,1.24,0,0,0,0,1.39c.17.24,0,.2-.15,0A1.46,1.46,0,0,1,248.55,228.89Z" style="fill:#dbdbdb"></path><path d="M247.33,239a1.67,1.67,0,0,1,2.54.63c.12.25,0,.21-.15,0a1.47,1.47,0,0,0-2.12-.26,1.51,1.51,0,0,0-.18,2.21c.19.22.16.23-.06.05A1.66,1.66,0,0,1,247.33,239Z" style="fill:#dbdbdb"></path><path d="M241.9,238.34a1.9,1.9,0,0,1,.3-.44c-1.52-1.3-.74-3.5,1.31-3.13.29,0,.41.17.13.12a1.47,1.47,0,0,0-1.69,1,1.64,1.64,0,0,0,.6,1.76l0,0a1.66,1.66,0,0,1,1.12-.16c.28.07.31.13,0,.11a1.52,1.52,0,0,0-1.11,2.58c.21.2.16.21-.08.05A1.56,1.56,0,0,1,241.9,238.34Z" style="fill:#dbdbdb"></path><path d="M260.59,228.93a1.2,1.2,0,0,1,1.45-.61h0a1.37,1.37,0,0,1,1.6-1.31c1,.21,1.23,1.22,1,2.1-.07.28-.18.22-.11-.06a1.37,1.37,0,0,0-.91-1.58,1.08,1.08,0,0,0-1.33.94,1.38,1.38,0,0,1,.64,1.06c0,.29-.06.34-.11.06a1.29,1.29,0,0,0-2.22-.45C260.44,229.3,260.46,229.18,260.59,228.93Z" style="fill:#dbdbdb"></path><path d="M252.92,245.28a1.36,1.36,0,0,1,.79-1.3,1.91,1.91,0,0,1,.83-1.83,1.42,1.42,0,0,1,1.8.27c.19.21.2.33,0,.14a1.4,1.4,0,0,0-1.76.13,1.53,1.53,0,0,0-.42,1.18,1.34,1.34,0,0,1,1.42,1.4c0,.29-.05.3-.09,0a1.26,1.26,0,0,0-2.46,0C253,245.57,252.93,245.57,252.92,245.28Z" style="fill:#dbdbdb"></path><path d="M253.11,232.93a1.36,1.36,0,0,1,1.53,1.43c0,.28-.09.35-.11.06a1.23,1.23,0,0,0-1.3-1.06,1.27,1.27,0,0,0-1.13,1.28c0,.28-.08.18-.12-.11A1.36,1.36,0,0,1,253.11,232.93Z" style="fill:#dbdbdb"></path><path d="M262.19,239.24a1.23,1.23,0,0,1,.21,1.88c-.17.2-.27.2-.11,0a1.12,1.12,0,0,0-.27-1.5,1.17,1.17,0,0,0-1.54.21c-.15.21-.15.08,0-.14A1.24,1.24,0,0,1,262.19,239.24Z" style="fill:#dbdbdb"></path><path d="M270.31,230.29c.29-.65,2.43-.44,3.26.23s3.08,3.56,2.55,3.84-4.66-.23-5.49-1.15A3,3,0,0,1,270.31,230.29Z" style="fill:#a6a6a6"></path><path d="M272.67,232.89c1.16,2.39,2.48,11.44-2,12.26-5.14.94-9.8-6.35-10.17-9.78-.28-2.59,2.7-5.34,5.83-5.83S272,231.57,272.67,232.89Z" style="fill:#c7c7c7"></path><path d="M268.44,239.42l1.33.42h0l1.14-.64c.11-.06.14,0,.05,0a4.59,4.59,0,0,1-1.09.76,6.52,6.52,0,0,1,0,1.66c0,.12-.09.07-.08-.05a8.43,8.43,0,0,0-.08-1.61,6.38,6.38,0,0,1-1.37-.57C268.22,239.38,268.32,239.38,268.44,239.42Z" style="fill:#263238"></path><path d="M265.62,237.67c-.9.12-.61,1.92.23,1.81S266.38,237.58,265.62,237.67Z" style="fill:#263238"></path><path d="M271.26,236.89c.88-.22,1.24,1.57.42,1.77S270.51,237.06,271.26,236.89Z" style="fill:#263238"></path><path d="M262.58,231.78c-.43-.57-2.46.1-3.13.93s-2.24,4.15-1.66,4.3,4.5-1.23,5.11-2.31A3,3,0,0,0,262.58,231.78Z" style="fill:#a6a6a6"></path><path d="M261,231.86a1.54,1.54,0,0,0,1.71,1.37l.26,0a2.2,2.2,0,0,0,2.22,1.25,2.16,2.16,0,0,0,1.6-1,2.11,2.11,0,0,0,1.72.57,2.18,2.18,0,0,0,1.94-2,1.6,1.6,0,0,0,.54,0,1.55,1.55,0,0,0-.33-3.09l-.14,0a2.29,2.29,0,0,0,0-.25,2.78,2.78,0,0,0-5.49-.24,1.56,1.56,0,0,0-2.53,1.37,1.4,1.4,0,0,0,.06.28.29.29,0,0,0-.16,0A1.55,1.55,0,0,0,261,231.86Z" style="fill:#fff"></path><path d="M289.75,95.62s.76,4.78,1,5.79,0,5.08.22,5.26a1.32,1.32,0,0,0,1.09.15c.18-.15.39-4.93.43-5.32s.77-5.88.77-5.88Z" style="fill:#a6a6a6"></path><path d="M294,97s.75,4.78,1,5.8,0,5.07.23,5.26a1.29,1.29,0,0,0,1.08.14c.19-.14.39-4.92.44-5.32s.76-5.88.76-5.88Z" style="fill:#c7c7c7"></path><path d="M304,96s.75,4.78,1,5.8,0,5.07.23,5.26a1.3,1.3,0,0,0,1.08.15c.19-.15.4-4.93.44-5.32s.77-5.89.77-5.89Z" style="fill:#a6a6a6"></path><path d="M308.17,97s.76,4.78,1,5.8,0,5.07.22,5.26a1.31,1.31,0,0,0,1.09.14c.18-.14.39-4.92.43-5.32s.77-5.88.77-5.88Z" style="fill:#c7c7c7"></path><path d="M286.64,91.87a3,3,0,0,0,.59.09,3.38,3.38,0,0,0,1.65,2.65,3.41,3.41,0,0,0,5.28,3.29,4.13,4.13,0,0,0,6.77,2.79,3.07,3.07,0,0,0,1.74,1.21,3,3,0,0,0,3-.82,3.23,3.23,0,0,0,5.5-.76h.25a2.56,2.56,0,0,0,2.48-2,2.59,2.59,0,0,0,1.69-1.77,2.53,2.53,0,0,0-.52-2.29,3.11,3.11,0,0,0,2.3-2.23,3.06,3.06,0,0,0-.52-2.65,3.19,3.19,0,0,0,.39-.88,3.11,3.11,0,0,0-2.21-3.8,3.9,3.9,0,0,0-.67-.11,2.54,2.54,0,0,0-1.88-2.32,2.45,2.45,0,0,0-1.14,0,4.13,4.13,0,0,0-6.89-3.45,3.41,3.41,0,0,0-6.22-.71,2.42,2.42,0,0,0-.84-.4,2.53,2.53,0,0,0-2.71,1,4.27,4.27,0,0,0-1.61-.84A4.14,4.14,0,0,0,288,80.79a4.07,4.07,0,0,0,.32,2.92,3.11,3.11,0,0,0-1.91,2.12l0,.12a3.11,3.11,0,0,0,.27,5.92Z" style="fill:#fff"></path><path d="M308.35,83a1.05,1.05,0,0,0-.89-.45,2,2,0,0,0-1.4-2.6,2.13,2.13,0,0,0-2.62,2.15c0,.29.11.38.1.09a2.08,2.08,0,0,1,2.1-1.86A1.86,1.86,0,0,1,307,82.92c0,.17.46-.26,1.09.38a1.24,1.24,0,0,1,.05,1.39c-.17.24,0,.2.15,0A1.46,1.46,0,0,0,308.35,83Z" style="fill:#dbdbdb"></path><path d="M309.57,93.06a1.67,1.67,0,0,0-2.54.63c-.12.25,0,.21.15,0a1.47,1.47,0,0,1,2.12-.26,1.51,1.51,0,0,1,.17,2.21c-.18.22-.15.23.07,0A1.66,1.66,0,0,0,309.57,93.06Z" style="fill:#dbdbdb"></path><path d="M315,92.4a1.9,1.9,0,0,0-.3-.44c1.51-1.3.73-3.5-1.32-3.13-.28,0-.4.17-.12.12a1.47,1.47,0,0,1,1.69,1,1.64,1.64,0,0,1-.6,1.76l0,0a1.6,1.6,0,0,0-1.12-.15c-.28.06-.31.12,0,.1a1.52,1.52,0,0,1,1.11,2.58c-.21.2-.17.21.08,0A1.56,1.56,0,0,0,315,92.4Z" style="fill:#dbdbdb"></path><path d="M296.31,83a1.2,1.2,0,0,0-1.45-.61h0a1.37,1.37,0,0,0-1.6-1.31c-1,.21-1.23,1.22-1,2.1.07.28.18.22.11-.06a1.37,1.37,0,0,1,.91-1.58,1.08,1.08,0,0,1,1.33,1,1.35,1.35,0,0,0-.64,1c0,.29.06.34.1.06a1.3,1.3,0,0,1,2.23-.45C296.46,83.36,296.44,83.24,296.31,83Z" style="fill:#dbdbdb"></path><path d="M304,99.34a1.36,1.36,0,0,0-.79-1.3,1.91,1.91,0,0,0-.83-1.83,1.42,1.42,0,0,0-1.8.27c-.19.21-.2.33,0,.14a1.4,1.4,0,0,1,1.76.13,1.53,1.53,0,0,1,.42,1.18,1.34,1.34,0,0,0-1.42,1.4c0,.29.05.3.09,0a1.26,1.26,0,0,1,2.46,0C303.94,99.63,304,99.63,304,99.34Z" style="fill:#dbdbdb"></path><path d="M303.79,87a1.36,1.36,0,0,0-1.53,1.43c0,.28.09.35.11.06a1.23,1.23,0,0,1,1.3-1.06,1.27,1.27,0,0,1,1.13,1.28c0,.28.08.18.12-.11A1.36,1.36,0,0,0,303.79,87Z" style="fill:#dbdbdb"></path><path d="M294.71,93.3a1.23,1.23,0,0,0-.21,1.88c.17.2.26.2.11,0a1.12,1.12,0,0,1,.27-1.5,1.14,1.14,0,0,1,1.53.22c.16.2.16.07,0-.15A1.24,1.24,0,0,0,294.71,93.3Z" style="fill:#dbdbdb"></path><path d="M287.33,81.63c-.11-.7-2.23-1-3.2-.62s-3.91,2.64-3.46,3,4.55,1,5.59.31A3,3,0,0,0,287.33,81.63Z" style="fill:#a6a6a6"></path><path d="M284.38,83.53c-1.74,2-5.36,10.4-1.24,12.36,4.73,2.25,11.12-3.59,12.36-6.81.94-2.42-1.22-5.86-4.12-7.14S285.34,82.43,284.38,83.53Z" style="fill:#c7c7c7"></path><path d="M286.77,90.93l-1.39.07h0l-.92-.91c-.09-.09-.14-.07-.07,0a4.78,4.78,0,0,0,.85,1,7.54,7.54,0,0,0-.39,1.61c0,.13.07.09.1,0a9,9,0,0,1,.48-1.53,6,6,0,0,0,1.48-.2C287,91,286.9,90.93,286.77,90.93Z" style="fill:#263238"></path><path d="M289.94,90c.85.34.1,2-.68,1.69S289.24,89.69,289.94,90Z" style="fill:#263238"></path><path d="M284.71,87.76c-.8-.44-1.61,1.19-.87,1.6S285.38,88.12,284.71,87.76Z" style="fill:#263238"></path><path d="M294.42,85.07c.55-.44,2.34.74,2.77,1.71s1.09,4.59.49,4.58-4-2.35-4.33-3.55A3,3,0,0,1,294.42,85.07Z" style="fill:#a6a6a6"></path><path d="M295.91,85.56a1.56,1.56,0,0,1-2,.88,1.75,1.75,0,0,1-.24-.11,2.18,2.18,0,0,1-2.47.63,2.13,2.13,0,0,1-1.28-1.39,2.18,2.18,0,0,1-3.17-2.31,1.55,1.55,0,1,1,.59-3l.12.06.09-.24a2.78,2.78,0,0,1,5.36,1.19,1.6,1.6,0,0,1,1.2,0,1.56,1.56,0,0,1,.89,2,1,1,0,0,1-.13.25l.16,0A1.57,1.57,0,0,1,295.91,85.56Z" style="fill:#fff"></path><path d="M285.24,218.75s.75,4.78,1,5.8,0,5.07.23,5.26a1.26,1.26,0,0,0,1.08.14c.18-.14.39-4.92.43-5.32s.77-5.88.77-5.88Z" style="fill:#a6a6a6"></path><path d="M289.43,220.17s.75,4.78,1,5.79,0,5.08.23,5.26a1.3,1.3,0,0,0,1.08.15c.19-.15.4-4.93.44-5.32s.77-5.88.77-5.88Z" style="fill:#c7c7c7"></path><path d="M299.46,219.14s.75,4.78,1,5.8,0,5.07.23,5.26a1.3,1.3,0,0,0,1.08.14c.19-.14.4-4.92.44-5.32s.77-5.88.77-5.88Z" style="fill:#a6a6a6"></path><path d="M303.66,220.17s.75,4.78,1,5.79,0,5.08.23,5.26a1.3,1.3,0,0,0,1.08.15c.18-.15.39-4.93.43-5.32s.77-5.88.77-5.88Z" style="fill:#c7c7c7"></path><path d="M282.12,215a3,3,0,0,0,.59.09,3.38,3.38,0,0,0,1.65,2.65,3.41,3.41,0,0,0,5.28,3.29,4.13,4.13,0,0,0,6.77,2.79,3.07,3.07,0,0,0,1.74,1.21,3,3,0,0,0,3-.82,3.23,3.23,0,0,0,5.5-.76h.25a2.56,2.56,0,0,0,2.48-1.95,2.59,2.59,0,0,0,1.69-1.77,2.53,2.53,0,0,0-.52-2.29,3.11,3.11,0,0,0,2.3-2.23,3.06,3.06,0,0,0-.52-2.65,3.19,3.19,0,0,0,.39-.88,3.11,3.11,0,0,0-2.21-3.8,3.9,3.9,0,0,0-.67-.11,2.54,2.54,0,0,0-1.88-2.32,2.45,2.45,0,0,0-1.14,0,4.13,4.13,0,0,0-6.89-3.45,3.41,3.41,0,0,0-6.22-.71,2.42,2.42,0,0,0-.84-.4,2.53,2.53,0,0,0-2.71,1,4.27,4.27,0,0,0-1.61-.84,4.14,4.14,0,0,0-5.06,2.94,4.07,4.07,0,0,0,.32,2.92,3.11,3.11,0,0,0-1.91,2.12l0,.12a3.11,3.11,0,0,0,.27,5.92Z" style="fill:#fff"></path><path d="M303.83,206.08a1.07,1.07,0,0,0-.89-.44,2,2,0,0,0-1.4-2.6,2.13,2.13,0,0,0-2.62,2.15c0,.28.11.38.11.09a2.05,2.05,0,0,1,2.09-1.86,1.85,1.85,0,0,1,1.32,2.64c0,.17.46-.26,1.09.38a1.24,1.24,0,0,1,.05,1.39c-.17.23,0,.2.15,0A1.48,1.48,0,0,0,303.83,206.08Z" style="fill:#dbdbdb"></path><path d="M305.05,216.19a1.67,1.67,0,0,0-2.54.63c-.12.26,0,.22.15,0a1.47,1.47,0,0,1,2.12-.25,1.5,1.5,0,0,1,.18,2.2c-.19.22-.16.24.06.06A1.67,1.67,0,0,0,305.05,216.19Z" style="fill:#dbdbdb"></path><path d="M310.48,215.54a1.55,1.55,0,0,0-.3-.44c1.52-1.3.74-3.51-1.31-3.13-.29.05-.41.17-.13.12a1.47,1.47,0,0,1,1.69,1,1.64,1.64,0,0,1-.6,1.76h0a1.6,1.6,0,0,0-1.12-.15c-.28.07-.31.13,0,.1a1.52,1.52,0,0,1,1.11,2.59c-.21.2-.16.21.08,0A1.56,1.56,0,0,0,310.48,215.54Z" style="fill:#dbdbdb"></path><path d="M291.79,206.13a1.22,1.22,0,0,0-1.45-.62h0a1.36,1.36,0,0,0-1.59-1.31c-1,.2-1.24,1.22-1,2.1.07.28.18.22.11-.06a1.36,1.36,0,0,1,.91-1.58,1.08,1.08,0,0,1,1.33.94,1.37,1.37,0,0,0-.64,1.06c0,.28.06.34.11.05a1.29,1.29,0,0,1,2.22-.45C291.94,206.49,291.92,206.38,291.79,206.13Z" style="fill:#dbdbdb"></path><path d="M299.46,222.48a1.36,1.36,0,0,0-.79-1.3,1.91,1.91,0,0,0-.83-1.83,1.41,1.41,0,0,0-1.8.27c-.19.21-.2.32,0,.14a1.39,1.39,0,0,1,1.76.13,1.51,1.51,0,0,1,.42,1.18,1.34,1.34,0,0,0-1.42,1.4c0,.28.05.3.09,0a1.26,1.26,0,0,1,2.46,0C299.43,222.77,299.45,222.76,299.46,222.48Z" style="fill:#dbdbdb"></path><path d="M299.27,210.12a1.37,1.37,0,0,0-1.53,1.43c0,.29.09.35.11.07a1.24,1.24,0,0,1,1.3-1.07,1.28,1.28,0,0,1,1.13,1.29c0,.28.08.17.12-.11A1.36,1.36,0,0,0,299.27,210.12Z" style="fill:#dbdbdb"></path><path d="M290.19,216.44a1.23,1.23,0,0,0-.21,1.88c.17.19.27.19.11,0a1.11,1.11,0,0,1,.27-1.49,1.17,1.17,0,0,1,1.54.21c.15.2.15.08,0-.14A1.23,1.23,0,0,0,290.19,216.44Z" style="fill:#dbdbdb"></path><path d="M281.86,205.18c-.23-.67-2.37-.65-3.26-.06s-3.4,3.27-2.88,3.58,4.65.21,5.56-.64A3,3,0,0,0,281.86,205.18Z" style="fill:#a6a6a6"></path><path d="M279.28,207.56c-1.37,2.27-3.51,11.16.89,12.39,5,1.41,10.34-5.43,11-8.82.51-2.55-2.21-5.56-5.28-6.33S280,206.3,279.28,207.56Z" style="fill:#c7c7c7"></path><path d="M282.9,214.44l-1.36.3h0l-1.07-.74c-.1-.07-.14,0-.05.05a4.61,4.61,0,0,0,1,.85,6.79,6.79,0,0,0-.11,1.66c0,.12.08.08.09,0a7.5,7.5,0,0,1,.22-1.59,6.19,6.19,0,0,0,1.42-.45C283.13,214.42,283,214.41,282.9,214.44Z" style="fill:#263238"></path><path d="M285.86,213c.89.19.44,2-.38,1.78S285.12,212.8,285.86,213Z" style="fill:#263238"></path><path d="M280.32,211.66c-.86-.29-1.38,1.46-.58,1.73S281.05,211.91,280.32,211.66Z" style="fill:#263238"></path><path d="M289.43,207.37c.48-.53,2.44.32,3,1.21s1.86,4.33,1.26,4.43-4.37-1.63-4.87-2.77A3,3,0,0,1,289.43,207.37Z" style="fill:#a6a6a6"></path><path d="M291,207.59a1.56,1.56,0,0,1-1.84,1.21,1.09,1.09,0,0,1-.24-.07,2.2,2.2,0,0,1-2.33,1.05,2.16,2.16,0,0,1-1.51-1.15,2.18,2.18,0,0,1-3.51-1.74,1.46,1.46,0,0,1-.55,0,1.55,1.55,0,0,1-1.2-1.83,1.53,1.53,0,0,1,1.82-1.21.28.28,0,0,1,.13,0,2.21,2.21,0,0,1,.05-.25,2.78,2.78,0,0,1,5.48.26,1.57,1.57,0,0,1,1.18-.23,1.55,1.55,0,0,1,1.22,1.82,1.07,1.07,0,0,1-.09.27l.17,0A1.56,1.56,0,0,1,291,207.59Z" style="fill:#fff"></path></g></svg>